<svg id="visual" viewBox="0 0 1920 1080" width="1920" height="1080" xmlns="http://www.w3.org/2000/svg" xmlns:xlink="http://www.w3.org/1999/xlink" version="1.1"><rect x="0" y="0" width="1920" height="1080" fill="#001220"></rect><path d="M524 0L532.2 10.7C540.3 21.3 556.7 42.7 545.7 63.8C534.7 85 496.3 106 462.2 127.2C428 148.3 398 169.7 394.3 190.8C390.7 212 413.3 233 445.3 254.2C477.3 275.3 518.7 296.7 516.5 317.8C514.3 339 468.7 360 442.8 381.2C417 402.3 411 423.7 422.2 444.8C433.3 466 461.7 487 470.5 508.2C479.3 529.3 468.7 550.7 449.5 571.8C430.3 593 402.7 614 422.3 635.2C442 656.3 509 677.7 543.3 698.8C577.7 720 579.3 741 564.3 762.2C549.3 783.3 517.7 804.7 482.5 825.8C447.3 847 408.7 868 408.5 889.2C408.3 910.3 446.7 931.7 460.5 952.8C474.3 974 463.7 995 476.2 1016.2C488.7 1037.3 524.3 1058.7 542.2 1069.3L560 1080L0 1080L0 1069.3C0 1058.7 0 1037.3 0 1016.2C0 995 0 974 0 952.8C0 931.7 0 910.3 0 889.2C0 868 0 847 0 825.8C0 804.7 0 783.3 0 762.2C0 741 0 720 0 698.8C0 677.7 0 656.3 0 635.2C0 614 0 593 0 571.8C0 550.7 0 529.3 0 508.2C0 487 0 466 0 444.8C0 423.7 0 402.3 0 381.2C0 360 0 339 0 317.8C0 296.7 0 275.3 0 254.2C0 233 0 212 0 190.8C0 169.7 0 148.3 0 127.2C0 106 0 85 0 63.8C0 42.7 0 21.3 0 10.7L0 0Z" fill="#fa7268"></path><path d="M532 0L529.8 10.7C527.7 21.3 523.3 42.7 496.7 63.8C470 85 421 106 413.3 127.2C405.7 148.3 439.3 169.7 462.2 190.8C485 212 497 233 493.7 254.2C490.3 275.3 471.7 296.7 473.3 317.8C475 339 497 360 511.5 381.2C526 402.3 533 423.7 512 444.8C491 466 442 487 430.2 508.2C418.3 529.3 443.7 550.7 434.2 571.8C424.7 593 380.3 614 357.5 635.2C334.7 656.3 333.3 677.7 346.2 698.8C359 720 386 741 410.3 762.2C434.7 783.3 456.3 804.7 473 825.8C489.7 847 501.3 868 496.3 889.2C491.3 910.3 469.7 931.7 458.8 952.8C448 974 448 995 436.8 1016.2C425.7 1037.3 403.3 1058.7 392.2 1069.3L381 1080L0 1080L0 1069.3C0 1058.7 0 1037.3 0 1016.2C0 995 0 974 0 952.8C0 931.7 0 910.3 0 889.2C0 868 0 847 0 825.8C0 804.7 0 783.3 0 762.2C0 741 0 720 0 698.8C0 677.7 0 656.3 0 635.2C0 614 0 593 0 571.8C0 550.7 0 529.3 0 508.2C0 487 0 466 0 444.8C0 423.7 0 402.3 0 381.2C0 360 0 339 0 317.8C0 296.7 0 275.3 0 254.2C0 233 0 212 0 190.8C0 169.7 0 148.3 0 127.2C0 106 0 85 0 63.8C0 42.7 0 21.3 0 10.7L0 0Z" fill="#f56a67"></path><path d="M340 0L340.5 10.7C341 21.3 342 42.7 344.8 63.8C347.7 85 352.3 106 374.5 127.2C396.7 148.3 436.3 169.7 447.5 190.8C458.7 212 441.3 233 428.3 254.2C415.3 275.3 406.7 296.7 409.7 317.8C412.7 339 427.3 360 429.7 381.2C432 402.3 422 423.7 401.2 444.8C380.3 466 348.7 487 341.5 508.2C334.3 529.3 351.7 550.7 371.8 571.8C392 593 415 614 408.7 635.2C402.3 656.3 366.7 677.7 371.3 698.8C376 720 421 741 424.2 762.2C427.3 783.3 388.7 804.7 374.8 825.8C361 847 372 868 371.5 889.2C371 910.3 359 931.7 360.2 952.8C361.3 974 375.7 995 390.3 1016.2C405 1037.3 420 1058.7 427.5 1069.3L435 1080L0 1080L0 1069.3C0 1058.7 0 1037.3 0 1016.2C0 995 0 974 0 952.8C0 931.7 0 910.3 0 889.2C0 868 0 847 0 825.8C0 804.7 0 783.3 0 762.2C0 741 0 720 0 698.8C0 677.7 0 656.3 0 635.2C0 614 0 593 0 571.8C0 550.7 0 529.3 0 508.2C0 487 0 466 0 444.8C0 423.7 0 402.3 0 381.2C0 360 0 339 0 317.8C0 296.7 0 275.3 0 254.2C0 233 0 212 0 190.8C0 169.7 0 148.3 0 127.2C0 106 0 85 0 63.8C0 42.7 0 21.3 0 10.7L0 0Z" fill="#f06167"></path><path d="M404 0L393 10.7C382 21.3 360 42.7 356.3 63.8C352.7 85 367.3 106 378.7 127.2C390 148.3 398 169.7 388.7 190.8C379.3 212 352.7 233 342.3 254.2C332 275.3 338 296.7 339.8 317.8C341.7 339 339.3 360 341.3 381.2C343.3 402.3 349.7 423.7 353 444.8C356.3 466 356.7 487 346.8 508.2C337 529.3 317 550.7 313.8 571.8C310.7 593 324.3 614 333.5 635.2C342.7 656.3 347.3 677.7 337.7 698.8C328 720 304 741 315.5 762.2C327 783.3 374 804.7 398.8 825.8C423.7 847 426.3 868 412.7 889.2C399 910.3 369 931.7 353.5 952.8C338 974 337 995 346.5 1016.2C356 1037.3 376 1058.7 386 1069.3L396 1080L0 1080L0 1069.3C0 1058.7 0 1037.3 0 1016.2C0 995 0 974 0 952.8C0 931.7 0 910.3 0 889.2C0 868 0 847 0 825.8C0 804.7 0 783.3 0 762.2C0 741 0 720 0 698.8C0 677.7 0 656.3 0 635.2C0 614 0 593 0 571.8C0 550.7 0 529.3 0 508.2C0 487 0 466 0 444.8C0 423.7 0 402.3 0 381.2C0 360 0 339 0 317.8C0 296.7 0 275.3 0 254.2C0 233 0 212 0 190.8C0 169.7 0 148.3 0 127.2C0 106 0 85 0 63.8C0 42.7 0 21.3 0 10.7L0 0Z" fill="#eb5967"></path><path d="M331 0L324.2 10.7C317.3 21.3 303.7 42.7 289.5 63.8C275.3 85 260.7 106 268 127.2C275.3 148.3 304.7 169.7 304.7 190.8C304.7 212 275.3 233 262.7 254.2C250 275.3 254 296.7 264.8 317.8C275.7 339 293.3 360 306.2 381.2C319 402.3 327 423.7 314.8 444.8C302.7 466 270.3 487 274.3 508.2C278.3 529.3 318.7 550.7 338.5 571.8C358.3 593 357.7 614 352.5 635.2C347.3 656.3 337.7 677.7 317.3 698.8C297 720 266 741 249.8 762.2C233.7 783.3 232.3 804.7 239.8 825.8C247.3 847 263.7 868 263 889.2C262.3 910.3 244.7 931.7 238.7 952.8C232.7 974 238.3 995 246.8 1016.2C255.3 1037.3 266.7 1058.7 272.3 1069.3L278 1080L0 1080L0 1069.3C0 1058.7 0 1037.3 0 1016.2C0 995 0 974 0 952.8C0 931.7 0 910.3 0 889.2C0 868 0 847 0 825.8C0 804.7 0 783.3 0 762.2C0 741 0 720 0 698.8C0 677.7 0 656.3 0 635.2C0 614 0 593 0 571.8C0 550.7 0 529.3 0 508.2C0 487 0 466 0 444.8C0 423.7 0 402.3 0 381.2C0 360 0 339 0 317.8C0 296.7 0 275.3 0 254.2C0 233 0 212 0 190.8C0 169.7 0 148.3 0 127.2C0 106 0 85 0 63.8C0 42.7 0 21.3 0 10.7L0 0Z" fill="#e65067"></path><path d="M228 0L234.5 10.7C241 21.3 254 42.7 254.3 63.8C254.7 85 242.3 106 233.5 127.2C224.7 148.3 219.3 169.7 231.3 190.8C243.3 212 272.7 233 284.7 254.2C296.7 275.3 291.3 296.7 289.8 317.8C288.3 339 290.7 360 295 381.2C299.3 402.3 305.7 423.7 300.2 444.8C294.7 466 277.3 487 259.5 508.2C241.7 529.3 223.3 550.7 214 571.8C204.7 593 204.3 614 222.5 635.2C240.7 656.3 277.3 677.7 292.7 698.8C308 720 302 741 298 762.2C294 783.3 292 804.7 287 825.8C282 847 274 868 274.7 889.2C275.3 910.3 284.7 931.7 275.2 952.8C265.7 974 237.3 995 234.3 1016.2C231.3 1037.3 253.7 1058.7 264.8 1069.3L276 1080L0 1080L0 1069.3C0 1058.7 0 1037.3 0 1016.2C0 995 0 974 0 952.8C0 931.7 0 910.3 0 889.2C0 868 0 847 0 825.8C0 804.7 0 783.3 0 762.2C0 741 0 720 0 698.8C0 677.7 0 656.3 0 635.2C0 614 0 593 0 571.8C0 550.7 0 529.3 0 508.2C0 487 0 466 0 444.8C0 423.7 0 402.3 0 381.2C0 360 0 339 0 317.8C0 296.7 0 275.3 0 254.2C0 233 0 212 0 190.8C0 169.7 0 148.3 0 127.2C0 106 0 85 0 63.8C0 42.7 0 21.3 0 10.7L0 0Z" fill="#e04867"></path><path d="M255 0L244.2 10.7C233.3 21.3 211.7 42.7 213 63.8C214.3 85 238.7 106 239.7 127.2C240.7 148.3 218.3 169.7 200.7 190.8C183 212 170 233 167.2 254.2C164.3 275.3 171.7 296.7 185.3 317.8C199 339 219 360 214.2 381.2C209.3 402.3 179.7 423.7 169 444.8C158.3 466 166.7 487 173.5 508.2C180.3 529.3 185.7 550.7 193.7 571.8C201.7 593 212.3 614 217.2 635.2C222 656.3 221 677.7 227 698.8C233 720 246 741 252.2 762.2C258.3 783.3 257.7 804.7 255 825.8C252.3 847 247.7 868 243.8 889.2C240 910.3 237 931.7 225.7 952.8C214.3 974 194.7 995 189.8 1016.2C185 1037.3 195 1058.7 200 1069.3L205 1080L0 1080L0 1069.3C0 1058.7 0 1037.3 0 1016.2C0 995 0 974 0 952.8C0 931.7 0 910.3 0 889.2C0 868 0 847 0 825.8C0 804.7 0 783.3 0 762.2C0 741 0 720 0 698.8C0 677.7 0 656.3 0 635.2C0 614 0 593 0 571.8C0 550.7 0 529.3 0 508.2C0 487 0 466 0 444.8C0 423.7 0 402.3 0 381.2C0 360 0 339 0 317.8C0 296.7 0 275.3 0 254.2C0 233 0 212 0 190.8C0 169.7 0 148.3 0 127.2C0 106 0 85 0 63.8C0 42.7 0 21.3 0 10.7L0 0Z" fill="#da3f67"></path><path d="M184 0L182 10.7C180 21.3 176 42.7 165.3 63.8C154.7 85 137.3 106 128.5 127.2C119.7 148.3 119.3 169.7 125.5 190.8C131.7 212 144.3 233 158.5 254.2C172.7 275.3 188.3 296.7 195.7 317.8C203 339 202 360 194.7 381.2C187.3 402.3 173.7 423.7 170 444.8C166.3 466 172.7 487 167.3 508.2C162 529.3 145 550.7 138.2 571.8C131.3 593 134.7 614 147.2 635.2C159.7 656.3 181.3 677.7 186.3 698.8C191.3 720 179.7 741 170.3 762.2C161 783.3 154 804.7 154.5 825.8C155 847 163 868 160.8 889.2C158.7 910.3 146.3 931.7 139.8 952.8C133.3 974 132.7 995 132.2 1016.2C131.7 1037.3 131.3 1058.7 131.2 1069.3L131 1080L0 1080L0 1069.3C0 1058.7 0 1037.3 0 1016.2C0 995 0 974 0 952.8C0 931.7 0 910.3 0 889.2C0 868 0 847 0 825.8C0 804.7 0 783.3 0 762.2C0 741 0 720 0 698.8C0 677.7 0 656.3 0 635.2C0 614 0 593 0 571.8C0 550.7 0 529.3 0 508.2C0 487 0 466 0 444.8C0 423.7 0 402.3 0 381.2C0 360 0 339 0 317.8C0 296.7 0 275.3 0 254.2C0 233 0 212 0 190.8C0 169.7 0 148.3 0 127.2C0 106 0 85 0 63.8C0 42.7 0 21.3 0 10.7L0 0Z" fill="#d43667"></path><path d="M141 0L138 10.7C135 21.3 129 42.7 129.7 63.8C130.3 85 137.7 106 135.3 127.2C133 148.3 121 169.7 112 190.8C103 212 97 233 94.8 254.2C92.7 275.3 94.3 296.7 93.8 317.8C93.3 339 90.7 360 98.2 381.2C105.7 402.3 123.3 423.7 129.3 444.8C135.3 466 129.7 487 128.8 508.2C128 529.3 132 550.7 137 571.8C142 593 148 614 140.5 635.2C133 656.3 112 677.7 105.7 698.8C99.3 720 107.7 741 111.3 762.2C115 783.3 114 804.7 113.8 825.8C113.7 847 114.3 868 112.7 889.2C111 910.3 107 931.7 113.3 952.8C119.7 974 136.3 995 135.8 1016.2C135.3 1037.3 117.7 1058.7 108.8 1069.3L100 1080L0 1080L0 1069.3C0 1058.7 0 1037.3 0 1016.2C0 995 0 974 0 952.8C0 931.7 0 910.3 0 889.2C0 868 0 847 0 825.8C0 804.7 0 783.3 0 762.2C0 741 0 720 0 698.8C0 677.7 0 656.3 0 635.2C0 614 0 593 0 571.8C0 550.7 0 529.3 0 508.2C0 487 0 466 0 444.8C0 423.7 0 402.3 0 381.2C0 360 0 339 0 317.8C0 296.7 0 275.3 0 254.2C0 233 0 212 0 190.8C0 169.7 0 148.3 0 127.2C0 106 0 85 0 63.8C0 42.7 0 21.3 0 10.7L0 0Z" fill="#cd2d68"></path><path d="M44 0L49.8 10.7C55.7 21.3 67.3 42.7 71.7 63.8C76 85 73 106 73.7 127.2C74.3 148.3 78.7 169.7 77.2 190.8C75.7 212 68.3 233 69 254.2C69.7 275.3 78.3 296.7 75.8 317.8C73.3 339 59.7 360 56 381.2C52.3 402.3 58.7 423.7 61.5 444.8C64.3 466 63.7 487 61.5 508.2C59.3 529.3 55.7 550.7 58 571.8C60.3 593 68.7 614 70 635.2C71.3 656.3 65.7 677.7 61.2 698.8C56.7 720 53.3 741 53.7 762.2C54 783.3 58 804.7 60.5 825.8C63 847 64 868 64.3 889.2C64.7 910.3 64.3 931.7 61.3 952.8C58.3 974 52.7 995 55.5 1016.2C58.3 1037.3 69.7 1058.7 75.3 1069.3L81 1080L0 1080L0 1069.3C0 1058.7 0 1037.3 0 1016.2C0 995 0 974 0 952.8C0 931.7 0 910.3 0 889.2C0 868 0 847 0 825.8C0 804.7 0 783.3 0 762.2C0 741 0 720 0 698.8C0 677.7 0 656.3 0 635.2C0 614 0 593 0 571.8C0 550.7 0 529.3 0 508.2C0 487 0 466 0 444.8C0 423.7 0 402.3 0 381.2C0 360 0 339 0 317.8C0 296.7 0 275.3 0 254.2C0 233 0 212 0 190.8C0 169.7 0 148.3 0 127.2C0 106 0 85 0 63.8C0 42.7 0 21.3 0 10.7L0 0Z" fill="#c62368"></path></svg>